<?xml version="1.0" encoding="UTF-8"?>
<svg id="Layer_1" data-name="Layer 1" xmlns="http://www.w3.org/2000/svg" viewBox="0 0 16 16">
  <defs>
    <style>
      .cls-1 {
        fill: #c04127;
        stroke-width: 0px;
      }
    </style>
  </defs>
  <path class="cls-1" d="M7.41,10.99c0,.65,0,1.3,0,1.95,0,.14.06.25.19.31.12.06.24.04.34-.04.09-.07.12-.17.12-.29,0-1.03,0-2.05,0-3.08,0-.47,0-.95.05-1.42.1-1.16.34-2.3.71-3.41.27-.8.54-1.61.81-2.41.07-.21.16-.27.37-.27,1.13,0,2.26,0,3.39,0,.22,0,.32.08.37.3.37,1.5.75,3,1.13,4.5.12.49.24.98.31,1.47.09.67.1,1.34.06,2.02-.07,1.08-.37,2.11-.73,3.13-.03.07-.05.15-.07.22-.06.16-.16.24-.33.24-1.08,0-2.17,0-3.25,0-.26,0-.4-.21-.31-.46.47-1.42.95-2.85,1.42-4.27.46-1.38.92-2.76,1.38-4.13.05-.16.01-.29-.11-.38-.11-.08-.28-.08-.39,0-.06.05-.09.11-.12.18-.75,2.25-1.5,4.5-2.25,6.76-.23.68-.45,1.36-.68,2.04-.06.18-.16.26-.35.26-1.15,0-2.29,0-3.44,0-.19,0-.29-.07-.35-.26-.62-1.87-1.25-3.74-1.87-5.61-.33-1-.66-1.99-1-2.99-.07-.2-.24-.29-.42-.23-.18.06-.26.24-.19.44.39,1.16.77,2.32,1.16,3.48.52,1.57,1.04,3.13,1.57,4.7.08.22-.06.48-.34.48-1.06-.01-2.13,0-3.19,0-.21,0-.3-.07-.37-.26-.2-.61-.43-1.22-.57-1.85-.21-.94-.29-1.88-.23-2.84.05-.78.22-1.53.41-2.29.34-1.34.67-2.69,1.01-4.04.03-.1.05-.2.08-.3.05-.23.15-.3.39-.3.82,0,1.65,0,2.47,0,.31,0,.62,0,.93,0,.18,0,.29.08.34.24.33.98.66,1.96.97,2.95.23.72.37,1.46.48,2.21.14,1.02.12,2.04.12,3.06,0,.07,0,.14,0,.2Z"/>
  <path class="cls-1" d="M15.4,2.34c.1-.03.12-.1.11-.19-.01-.09-.08-.12-.15-.12-.08,0-.17,0-.25,0-.03,0-.05,0-.05.05,0,.17,0,.34,0,.51,0,.04.02.04.05.04.03,0,.05,0,.05-.04,0-.04,0-.09,0-.13,0-.02,0-.04.02-.05.09-.05.22.02.23.12,0,.02,0,.03,0,.05,0,.04.02.05.05.05.04,0,.05-.02.05-.05,0-.09-.01-.17-.11-.23ZM15.23,2.31c-.12,0-.06-.08-.07-.13-.02-.09.04-.08.1-.07.07,0,.15,0,.15.1,0,.11-.1.1-.17.1Z"/>
  <path class="cls-1" d="M15.26,1.79c-.3,0-.53.24-.53.54,0,.31.23.54.53.54.3,0,.54-.24.54-.54,0-.3-.24-.54-.54-.54ZM15.27,2.78c-.26,0-.46-.2-.46-.46,0-.25.2-.46.45-.46.25,0,.46.21.46.47,0,.25-.21.45-.46.45Z"/>
  <path class="cls-1" d="M15.4,2.34c.1-.03.12-.1.11-.19-.01-.09-.08-.12-.15-.12-.08,0-.17,0-.25,0-.03,0-.05,0-.05.05,0,.17,0,.34,0,.51,0,.04.02.04.05.04.03,0,.05,0,.05-.04,0-.04,0-.09,0-.13,0-.02,0-.04.02-.05.09-.05.22.02.23.12,0,.02,0,.03,0,.05,0,.04.02.05.05.05.04,0,.05-.02.05-.05,0-.09-.01-.17-.11-.23ZM15.23,2.31c-.12,0-.06-.08-.07-.13-.02-.09.04-.08.1-.07.07,0,.15,0,.15.1,0,.11-.1.1-.17.1Z"/>
  <path class="cls-1" d="M15.4,2.34c.1-.03.12-.1.11-.19-.01-.09-.08-.12-.15-.12-.08,0-.17,0-.25,0-.03,0-.05,0-.05.05,0,.17,0,.34,0,.51,0,.04.02.04.05.04.03,0,.05,0,.05-.04,0-.04,0-.09,0-.13,0-.02,0-.04.02-.05.09-.05.22.02.23.12,0,.02,0,.03,0,.05,0,.04.02.05.05.05.04,0,.05-.02.05-.05,0-.09-.01-.17-.11-.23ZM15.23,2.31c-.12,0-.06-.08-.07-.13-.02-.09.04-.08.1-.07.07,0,.15,0,.15.1,0,.11-.1.1-.17.1Z"/>
</svg>