<?xml version="1.0" encoding="UTF-8"?>
<svg id="Layer_1" data-name="Layer 1" xmlns="http://www.w3.org/2000/svg" viewBox="0 0 5050.66 566.73">
  <defs>
    <style>
      .cls-1 {
        fill: #231f20;
      }

      .cls-1, .cls-2 {
        stroke-width: 0px;
      }

      .cls-2 {
        fill: #c04127;
      }
    </style>
  </defs>
  <g>
    <path class="cls-2" d="M350.7,357.32c0,22.39-.01,44.78.02,67.18,0,4.79,1.99,8.52,6.45,10.68,4.23,2.05,8.18,1.33,11.72-1.51,3.12-2.5,4.11-5.98,4.1-9.92-.04-35.34.06-70.67-.06-106.01-.05-16.33.22-32.64,1.63-48.91,3.47-40.07,11.65-79.18,24.49-117.31,9.32-27.68,18.55-55.39,27.81-83.08,2.36-7.07,5.4-9.32,12.79-9.32,38.84,0,77.68-.01,116.53,0,7.66,0,10.99,2.79,12.9,10.42,12.9,51.59,25.78,103.18,38.76,154.75,4.22,16.77,8.3,33.56,10.52,50.73,2.98,23.06,3.6,46.15,2.08,69.38-2.44,37.34-12.72,72.78-25.06,107.77-.89,2.51-1.7,5.05-2.55,7.58-1.91,5.68-5.46,8.38-11.38,8.39-37.33.03-74.65.04-111.98,0-8.86-.01-13.64-7.18-10.74-15.88,16.32-48.97,32.66-97.93,48.98-146.9,15.81-47.43,31.61-94.87,47.39-142.31,1.79-5.38.38-10.15-3.7-13.09-3.89-2.79-9.52-2.68-13.33.26-2.12,1.63-3.22,3.89-4.05,6.36-25.84,77.52-51.71,155.03-77.56,232.55-7.8,23.39-15.54,46.79-23.33,70.18-2.08,6.26-5.6,8.82-12.16,8.83-39.43.01-78.85.01-118.28,0-6.53,0-10.03-2.56-12.13-8.87-21.46-64.34-42.91-128.68-64.37-193.02-11.42-34.26-22.84-68.52-34.27-102.77-2.29-6.87-8.2-10.11-14.33-7.95-6.2,2.19-8.83,8.2-6.55,15.04,13.29,39.88,26.6,79.76,39.89,119.64,17.97,53.91,35.77,107.88,54.05,161.68,2.61,7.69-2.07,16.51-11.81,16.41-36.62-.37-73.25-.15-109.88-.15-7.18,0-10.36-2.29-12.6-9.08-6.94-21.13-14.71-41.99-19.7-63.73-7.4-32.22-10.01-64.81-7.98-97.77,1.65-26.78,7.55-52.8,14.14-78.72,11.76-46.26,23.19-92.6,34.77-138.91.87-3.49,1.87-6.94,2.71-10.43,1.88-7.79,5.17-10.41,13.26-10.41,28.34,0,56.69,0,85.03,0,10.61,0,21.23-.02,31.84.01,6.19.02,9.94,2.62,11.83,8.32,11.19,33.78,22.63,67.48,33.41,101.38,7.89,24.81,12.81,50.32,16.49,76.1,4.99,35.01,4.19,70.2,4.21,105.39,0,2.33,0,4.66,0,7Z"/>
    <path class="cls-2" d="M625.61,59.59c3.47-1.06,4.04-3.5,3.61-6.4-.43-2.96-2.69-4.01-5.2-4.26-2.88-.28-5.8-.08-8.7-.15-1.15-.03-1.67.28-1.67,1.56.06,5.81.06,11.61.02,17.42,0,1.41.84,1.37,1.83,1.38.99,0,1.86.02,1.8-1.39-.07-1.51-.04-3.03,0-4.53.01-.65-.22-1.39.57-1.83,3.08-1.72,7.58.69,7.83,4.23.04.57.06,1.16,0,1.74-.12,1.38.53,1.76,1.84,1.81,1.46.05,1.65-.55,1.7-1.83.14-3.19-.47-5.95-3.62-7.75ZM619.75,58.61c-4.25.32-2.01-2.87-2.42-4.53-.76-3.07,1.49-2.59,3.3-2.56,2.46.07,5.25-.11,5.06,3.53-.22,3.89-3.33,3.36-5.94,3.56Z"/>
    <path class="cls-2" d="M620.95,40.52c-10.2.03-18.33,8.21-18.34,18.43,0,10.61,7.88,18.58,18.41,18.59,10.41,0,18.66-8.17,18.65-18.49-.01-10.27-8.39-18.56-18.72-18.52ZM621.1,74.84c-9.03.01-15.75-6.76-15.73-15.87,0-8.69,7.01-15.76,15.63-15.77,8.74,0,15.99,7.3,15.9,16.01-.09,8.68-7.1,15.61-15.79,15.63Z"/>
    <path class="cls-2" d="M625.61,59.59c3.47-1.06,4.04-3.5,3.61-6.4-.43-2.96-2.69-4.01-5.2-4.26-2.88-.28-5.8-.08-8.7-.15-1.15-.03-1.67.28-1.67,1.56.06,5.81.06,11.61.02,17.42,0,1.41.84,1.37,1.83,1.38.99,0,1.86.02,1.8-1.39-.07-1.51-.04-3.03,0-4.53.01-.65-.22-1.39.57-1.83,3.08-1.72,7.58.69,7.83,4.23.04.57.06,1.16,0,1.74-.12,1.38.53,1.76,1.84,1.81,1.46.05,1.65-.55,1.7-1.83.14-3.19-.47-5.95-3.62-7.75ZM619.75,58.61c-4.25.32-2.01-2.87-2.42-4.53-.76-3.07,1.49-2.59,3.3-2.56,2.46.07,5.25-.11,5.06,3.53-.22,3.89-3.33,3.36-5.94,3.56Z"/>
    <path class="cls-2" d="M625.61,59.59c3.47-1.06,4.04-3.5,3.61-6.4-.43-2.96-2.69-4.01-5.2-4.26-2.88-.28-5.8-.08-8.7-.15-1.15-.03-1.67.28-1.67,1.56.06,5.81.06,11.61.02,17.42,0,1.41.84,1.37,1.83,1.38.99,0,1.86.02,1.8-1.39-.07-1.51-.04-3.03,0-4.53.01-.65-.22-1.39.57-1.83,3.08-1.72,7.58.69,7.83,4.23.04.57.06,1.16,0,1.74-.12,1.38.53,1.76,1.84,1.81,1.46.05,1.65-.55,1.7-1.83.14-3.19-.47-5.95-3.62-7.75ZM619.75,58.61c-4.25.32-2.01-2.87-2.42-4.53-.76-3.07,1.49-2.59,3.3-2.56,2.46.07,5.25-.11,5.06,3.53-.22,3.89-3.33,3.36-5.94,3.56Z"/>
  </g>
  <g>
    <path class="cls-1" d="M4559.27,187.49h58.16v248.54h-58.16l6.73-72.11h-.97c-13.46,49.99-51.43,78.84-105.75,78.84-64.42,0-100.48-39.42-100.48-113.94v-141.33h58.17v134.12c0,46.63,23.56,70.67,66.34,70.67,46.63,0,75.96-30.77,75.96-76.92v-127.87Z"/>
    <polygon class="cls-1" points="4684.26 99.52 4742.43 88.46 4742.43 436.03 4684.26 436.03 4684.26 99.52"/>
    <path class="cls-1" d="M1836.09,187.49h58.16v248.54h-58.16l6.73-72.11h-.97c-13.46,49.99-51.43,78.84-105.76,78.84-64.41,0-100.47-39.42-100.47-113.94v-141.33h58.17v134.12c0,46.63,23.56,70.67,66.34,70.67,46.63,0,75.96-30.77,75.96-76.92v-127.87Z"/>
    <rect class="cls-1" x="2298.07" y="187.49" width="58.16" height="248.54"/>
    <path class="cls-1" d="M1235.26,128.09c0-38.31-18.13-62.13-47.63-62.13-46.6,0-63.68,49.71-63.68,99.41,0,40.38,7.77,83.35,21.75,124.25-32.62,59.01-75.08,107.17-110.28,107.17-22.25,0-38.82-27.44-47.63-67.82,42.97-67.3,70.94-149.1,70.94-197.25,0-39.86-13.99-65.75-45.56-65.75-60.06,0-79.73,85.95-79.73,172.41,0,28.47,2.59,57.47,7.76,84.9-31.06,42.46-67.81,73.52-99.91,73.52-13.47,0-20.19-7.76-20.19-21.23,0-20.71,12.42-43.48,50.73-65.23l-21.75-37.8c-54.36,25.89-80.24,64.2-80.24,107.17,0,31.58,23.29,63.16,70.41,63.16,40.9,0,80.76-28.47,114.94-69.37,16.05,40.9,41.42,69.37,77.14,69.37,49.18,0,96.29-45.56,132.53-104.06,18.13,39.35,40.9,75.59,65.76,104.06l40.38-26.4c-32.1-37.27-59.54-82.32-78.18-129.94,26.4-56.95,42.46-117.01,42.46-158.43ZM978.98,259.6l-.52-23.3c0-63.67,8.81-124.25,26.92-124.25,6.21,0,9.84,7.25,9.84,18.64,0,36.76-14.49,84.38-36.24,128.91ZM1168.46,164.34c0-30.03,5.7-52.29,17.09-52.29,6.73,0,10.35,6.21,10.35,17.61,0,26.92-7.76,61.09-21.23,95.77-4.14-20.19-6.21-40.9-6.21-61.09Z"/>
    <path class="cls-1" d="M1439,180.76c-84.13,0-145.18,54.32-145.18,131.24s61.05,130.76,145.18,130.76,144.22-53.84,144.22-130.76-60.57-131.24-144.22-131.24ZM1439,392.28c-52.88,0-85.57-33.17-85.57-80.76s32.69-80.28,85.57-80.28,85.09,33.17,85.09,80.28-32.69,80.76-85.09,80.76Z"/>
    <path class="cls-1" d="M2121.16,180.76c-28.84,0-58.65,13.46-85.09,34.61l-12.98-27.88h-60.09c12.98,24.04,24.04,46.63,33.17,67.78-29.32,37.02-49.51,81.25-49.51,119.7s19.71,67.79,62.01,67.79,70.67-27.89,70.67-75.96c0-27.4-9.14-64.42-25.96-108.16,19.71-17.79,41.34-29.33,61.53-29.33,51.92,0,60.57,60.09,60.09,206.72h58.17c4.81-192.78-28.84-255.27-112.01-255.27ZM2013,394.2c-11.06,0-15.39-5.77-15.39-24.03,0-20.67,7.21-43.27,18.75-63.94,7.69,24.52,12.02,44.71,12.02,59.61,0,21.15-5.29,28.36-15.38,28.36Z"/>
    <path class="cls-1" d="M3668.95,257.68h-.96c-14.42-49.04-56.25-76.92-109.61-76.92-72.11,0-122.58,52.88-122.58,124.51s50.47,125.47,122.58,125.47c53.84,0,95.19-28.36,109.61-77.4h.96l-5.77,67.78c-3.85,43.27-36.06,68.75-93.26,68.75-36.06,0-67.78-6.73-108.17-23.56v50.48c43.27,15.38,75.48,22.11,116.34,22.11,92.3,0,142.78-49.99,142.78-135.08v-216.33h-58.17l6.25,70.19ZM3579.05,381.7c-52.88,0-83.65-29.8-83.65-76.43s30.77-75.96,83.65-75.96,83.65,29.81,83.65,76.44-31.25,75.95-83.65,75.95Z"/>
    <polygon class="cls-1" points="3776.16 187.49 4001.62 187.49 4001.62 189.41 3858.36 385.07 3996.33 385.07 3996.33 436.03 3762.21 436.03 3762.21 434.1 3906.43 238.45 3776.16 238.45 3776.16 187.49"/>
    <path class="cls-1" d="M3023.47,292.14c-17.62,0-35.74,3.63-49.22,7.25l-5.7,44.56c16.58-2.59,30.05-5.7,47.67-5.7,20.2,0,36.26,6.73,36.26,24.87,0,20.72-17.09,33.67-58.54,33.67-34.19,0-68.9-15.54-102.58-29.53,10.87-31.61,16.58-68.91,20.72-104.66h1.04c55.95,0,155.95-35.22,155.95-123.3,0-40.41-25.91-73.57-80.83-73.57-76.16,0-104.65,63.21-119.16,146.62-19.69-4.14-37.3-9.84-51.29-17.1l-15.03,42.49c15.03,7.77,36.27,15.54,59.59,19.68-4.15,35.23-8.3,67.87-14.51,94.3-10.88-3.11-21.76-5.18-32.12-5.18-39.9,0-62.17,19.68-62.17,48.7,0,31.08,20.72,47.66,51.81,47.66s53.88-15.54,69.42-39.9c36.27,17.63,77.71,39.9,118.13,39.9,62.17,0,111.38-25.39,111.38-80.3,0-51.81-40.41-70.46-80.82-70.46ZM2988.24,111.84c20.21,0,30.05,9.84,30.05,27.98,0,49.21-54.4,75.12-100.51,76.67,10.88-68.9,27.98-104.65,70.46-104.65ZM2810.54,405.08c-7.78,0-13.47-3.11-13.47-10.36,0-7.78,5.18-11.4,17.62-11.4,6.21,0,13.46,1.04,20.72,3.62-6.23,11.41-14.51,18.14-24.87,18.14Z"/>
    <path class="cls-1" d="M4310.25,308.63c0,75.96-57.21,134.13-149.51,134.13s-144.22-54.33-144.22-130.76c0-19.71,2.89-39.9,6.73-58.65l52.88-4.33c-3.36,16.35-4.8,30.29-4.8,46.15,0,66.82,37.49,99.03,89.41,99.03,55.77,0,90.38-33.65,90.38-85.57,0-49.03-24.52-79.32-64.42-79.32-28.36,0-43.26,15.39-43.26,40.87,0,19.22,7.69,36.05,18.74,49.51l-49.03,12.98c-13.94-16.34-24.52-37.5-24.52-64.9,0-43.74,33.65-87.01,100.96-87.01,83.16,0,120.66,55.28,120.66,127.87Z"/>
    <path class="cls-1" d="M2364.41,122.59c0,19.23-16.35,33.65-37.5,33.65s-37.02-14.42-37.02-33.65,15.87-33.17,37.02-33.17,37.5,14.42,37.5,33.17Z"/>
    <path class="cls-1" d="M4875.59,122.59c0,19.23-16.35,33.65-37.5,33.65s-37.02-14.42-37.02-33.65,15.87-33.17,37.02-33.17,37.5,14.42,37.5,33.17Z"/>
    <rect class="cls-1" x="4809.24" y="187.49" width="58.17" height="248.54"/>
    <polygon class="cls-1" points="4924.06 410.46 4945.74 410.46 4945.74 416.45 4938.31 416.45 4938.31 433.88 4931.49 433.88 4931.49 416.45 4924.06 416.45 4924.06 410.46"/>
    <polygon class="cls-1" points="4978.6 410.46 4978.57 433.88 4971.77 433.88 4971.77 425.92 4972.14 419.76 4972.07 419.76 4964.14 434.35 4963.94 434.35 4956.01 419.76 4955.95 419.76 4956.31 425.92 4956.31 433.88 4949.49 433.88 4949.45 410.46 4956.88 410.46 4964.04 424.64 4971.2 410.46 4978.6 410.46"/>
    <path class="cls-1" d="M2579.77,180.76c8.65,0,17.3.96,23.07,1.92v57.69c-12.98-5.77-30.76-9.13-45.18-9.13-45.67,0-76.44,30.28-76.44,74.99v129.8h-58.17v-248.54h58.17l-6.73,72.11h.96c13.94-50.96,50.96-78.84,104.32-78.84Z"/>
    <path class="cls-1" d="M3264.18,180.76c-33.65,0-71.63,7.21-112.49,22.11v52.88c37.49-16.82,72.11-25.96,102.87-25.96,45.19,0,69.23,19.71,69.71,54.81h-83.17c-69.7,0-106.72,31.24-106.72,80.76s34.13,77.4,88.94,77.4,91.33-28.37,106.24-78.84h.96l-6.25,72.11h58.17v-145.66c0-71.15-43.27-109.61-118.26-109.61ZM3324.27,327.86c0,36.06-39.9,66.34-85.09,66.34-30.29,0-47.11-12.5-47.11-36.53s18.75-34.13,49.99-34.13h82.21v4.32Z"/>
  </g>
</svg>