<?xml version="1.0" encoding="UTF-8"?>
<svg id="Layer_1" data-name="Layer 1" xmlns="http://www.w3.org/2000/svg" viewBox="0 0 5115.03 595.53">
  <defs>
    <style>
      .cls-1 {
        letter-spacing: -.01em;
      }

      .cls-1, .cls-2, .cls-3, .cls-4 {
        font-family: 'TransformaMix_Trial-SemiBold', 'Transforma Mix_Trial';
      }

      .cls-1, .cls-2, .cls-3, .cls-4, .cls-5 {
        font-size: 480.73px;
        font-weight: 600;
      }

      .cls-6, .cls-7 {
        fill: #c04127;
      }

      .cls-8 {
        font-size: 491px;
        letter-spacing: -.02em;
      }

      .cls-8, .cls-9 {
        font-family: 'TransformaScript_Trial-Medium', 'Transforma Script_Trial';
        font-weight: 500;
      }

      .cls-2, .cls-5 {
        letter-spacing: -.02em;
      }

      .cls-3 {
        letter-spacing: -.04em;
      }

      .cls-9 {
        font-size: 489px;
        letter-spacing: -.02em;
      }

      .cls-7 {
        stroke-width: 0px;
      }

      .cls-4 {
        letter-spacing: -.02em;
      }

      .cls-5 {
        font-family: 'TransformaScript_Trial-SemiBold', 'Transforma Script_Trial';
        opacity: .97;
      }
    </style>
  </defs>
  <g>
    <path class="cls-7" d="M401.87,337.77c0,22.39-.01,44.78.02,67.18,0,4.79,1.99,8.52,6.45,10.68,4.23,2.05,8.18,1.33,11.72-1.51,3.12-2.5,4.11-5.98,4.1-9.92-.04-35.34.06-70.67-.06-106.01-.05-16.33.22-32.64,1.63-48.91,3.47-40.07,11.65-79.18,24.49-117.31,9.32-27.68,18.55-55.39,27.81-83.08,2.36-7.07,5.4-9.32,12.79-9.32,38.84,0,77.68-.01,116.53,0,7.66,0,10.99,2.79,12.9,10.42,12.9,51.59,25.78,103.18,38.76,154.75,4.22,16.77,8.3,33.56,10.52,50.73,2.98,23.06,3.6,46.15,2.08,69.38-2.44,37.34-12.72,72.78-25.06,107.77-.89,2.51-1.7,5.05-2.55,7.58-1.91,5.68-5.46,8.38-11.38,8.39-37.33.03-74.65.04-111.98,0-8.86-.01-13.64-7.18-10.74-15.88,16.32-48.97,32.66-97.93,48.98-146.9,15.81-47.43,31.61-94.87,47.39-142.31,1.79-5.38.38-10.15-3.7-13.09-3.89-2.79-9.52-2.68-13.33.26-2.12,1.63-3.22,3.89-4.05,6.36-25.84,77.52-51.71,155.03-77.56,232.55-7.8,23.39-15.54,46.79-23.33,70.18-2.08,6.26-5.6,8.82-12.16,8.83-39.43.01-78.85.01-118.28,0-6.53,0-10.03-2.56-12.13-8.87-21.46-64.34-42.91-128.68-64.37-193.02-11.42-34.26-22.84-68.52-34.27-102.77-2.29-6.87-8.2-10.11-14.33-7.95-6.2,2.19-8.83,8.2-6.55,15.04,13.29,39.88,26.6,79.76,39.89,119.64,17.97,53.91,35.77,107.88,54.05,161.68,2.61,7.69-2.07,16.51-11.81,16.41-36.62-.37-73.25-.15-109.88-.15-7.18,0-10.36-2.29-12.6-9.08-6.94-21.13-14.71-41.99-19.7-63.73-7.4-32.22-10.01-64.81-7.98-97.77,1.65-26.78,7.55-52.8,14.14-78.72,11.76-46.26,23.19-92.6,34.77-138.91.87-3.49,1.87-6.94,2.71-10.43,1.88-7.79,5.17-10.41,13.26-10.41,28.34,0,56.69,0,85.03,0,10.61,0,21.23-.02,31.84.01,6.19.02,9.94,2.62,11.83,8.32,11.19,33.78,22.63,67.48,33.41,101.38,7.89,24.81,12.81,50.32,16.49,76.1,4.99,35.01,4.19,70.2,4.21,105.39,0,2.33,0,4.66,0,7Z"/>
    <path class="cls-7" d="M676.78,40.05c3.47-1.06,4.04-3.5,3.61-6.4-.43-2.96-2.69-4.01-5.2-4.26-2.88-.28-5.8-.08-8.7-.15-1.15-.03-1.67.28-1.67,1.56.06,5.81.06,11.61.02,17.42,0,1.41.84,1.37,1.83,1.38.99,0,1.86.02,1.8-1.39-.07-1.51-.04-3.03,0-4.53.01-.65-.22-1.39.57-1.83,3.08-1.72,7.58.69,7.83,4.23.04.57.06,1.16,0,1.74-.12,1.38.53,1.76,1.84,1.81,1.46.05,1.65-.55,1.7-1.83.14-3.19-.47-5.95-3.62-7.75ZM670.91,39.06c-4.25.32-2.01-2.87-2.42-4.53-.76-3.07,1.49-2.59,3.3-2.56,2.46.07,5.25-.11,5.06,3.53-.22,3.89-3.33,3.36-5.94,3.56Z"/>
    <path class="cls-7" d="M672.12,20.97c-10.2.03-18.33,8.21-18.34,18.43,0,10.61,7.88,18.58,18.41,18.59,10.41,0,18.66-8.17,18.65-18.49-.01-10.27-8.39-18.56-18.72-18.52ZM672.27,55.29c-9.03.01-15.75-6.76-15.73-15.87,0-8.69,7.01-15.76,15.63-15.77,8.74,0,15.99,7.3,15.9,16.01-.09,8.68-7.1,15.61-15.79,15.63Z"/>
    <path class="cls-7" d="M676.78,40.05c3.47-1.06,4.04-3.5,3.61-6.4-.43-2.96-2.69-4.01-5.2-4.26-2.88-.28-5.8-.08-8.7-.15-1.15-.03-1.67.28-1.67,1.56.06,5.81.06,11.61.02,17.42,0,1.41.84,1.37,1.83,1.38.99,0,1.86.02,1.8-1.39-.07-1.51-.04-3.03,0-4.53.01-.65-.22-1.39.57-1.83,3.08-1.72,7.58.69,7.83,4.23.04.57.06,1.16,0,1.74-.12,1.38.53,1.76,1.84,1.81,1.46.05,1.65-.55,1.7-1.83.14-3.19-.47-5.95-3.62-7.75ZM670.91,39.06c-4.25.32-2.01-2.87-2.42-4.53-.76-3.07,1.49-2.59,3.3-2.56,2.46.07,5.25-.11,5.06,3.53-.22,3.89-3.33,3.36-5.94,3.56Z"/>
    <path class="cls-7" d="M676.78,40.05c3.47-1.06,4.04-3.5,3.61-6.4-.43-2.96-2.69-4.01-5.2-4.26-2.88-.28-5.8-.08-8.7-.15-1.15-.03-1.67.28-1.67,1.56.06,5.81.06,11.61.02,17.42,0,1.41.84,1.37,1.83,1.38.99,0,1.86.02,1.8-1.39-.07-1.51-.04-3.03,0-4.53.01-.65-.22-1.39.57-1.83,3.08-1.72,7.58.69,7.83,4.23.04.57.06,1.16,0,1.74-.12,1.38.53,1.76,1.84,1.81,1.46.05,1.65-.55,1.7-1.83.14-3.19-.47-5.95-3.62-7.75ZM670.91,39.06c-4.25.32-2.01-2.87-2.42-4.53-.76-3.07,1.49-2.59,3.3-2.56,2.46.07,5.25-.11,5.06,3.53-.22,3.89-3.33,3.36-5.94,3.56Z"/>
  </g>
  <text class="cls-6" transform="translate(816.8 428.04)"><tspan class="cls-9" x="0" y="0">M</tspan><tspan class="cls-2" x="504.15" y="0">ou</tspan><tspan class="cls-5" x="1156.99" y="0">n</tspan><tspan class="cls-2" x="1493.97" y="0">ir </tspan><tspan class="cls-8" x="1983.83" y="0">L</tspan><tspan class="cls-1" x="2344.71" y="0">a</tspan><tspan class="cls-4" x="2645.64" y="0">g</tspan><tspan class="cls-3" x="2983.6" y="0">z</tspan><tspan class="cls-4" x="3230.7" y="0">ouli</tspan></text>
</svg>