<?xml version="1.0" encoding="UTF-8"?>
<svg id="Layer_1" data-name="Layer 1" xmlns="http://www.w3.org/2000/svg" viewBox="0 0 5050.66 566.73">
  <defs>
    <style>
      .cls-1 {
        fill: #231f20;
      }

      .cls-1, .cls-2 {
        stroke-width: 0px;
      }

      .cls-2 {
        fill: #c04127;
      }
    </style>
  </defs>
  <g>
    <path class="cls-2" d="M349.39,363.96c0,23.84-.02,47.67.02,71.51,0,5.1,2.11,9.07,6.86,11.37,4.51,2.18,8.71,1.41,12.48-1.61,3.32-2.66,4.37-6.36,4.37-10.56-.04-37.62.06-75.23-.06-112.85-.05-17.38.23-34.75,1.73-52.06,3.69-42.66,12.41-84.28,26.07-124.88,9.92-29.46,19.74-58.96,29.6-88.44,2.52-7.53,5.75-9.92,13.61-9.93,41.35,0,82.7-.01,124.04,0,8.16,0,11.7,2.97,13.73,11.1,13.73,54.92,27.44,109.84,41.26,164.74,4.49,17.85,8.83,35.72,11.2,54.01,3.17,24.54,3.83,49.13,2.21,73.86-2.6,39.74-13.54,77.47-26.68,114.72-.94,2.67-1.8,5.38-2.71,8.07-2.04,6.04-5.81,8.93-12.12,8.93-39.73.03-79.47.05-119.2,0-9.43-.01-14.52-7.65-11.43-16.9,17.38-52.13,34.77-104.25,52.14-156.37,16.83-50.49,33.65-100.98,50.45-151.48,1.91-5.73.4-10.81-3.94-13.93-4.14-2.97-10.13-2.86-14.19.27-2.25,1.74-3.43,4.14-4.31,6.78-27.51,82.52-55.05,165.04-82.56,247.56-8.3,24.89-16.55,49.81-24.83,74.71-2.22,6.66-5.96,9.39-12.95,9.4-41.97.01-83.94.01-125.91,0-6.95,0-10.68-2.73-12.92-9.44-22.85-68.49-45.68-136.98-68.52-205.47-12.16-36.47-24.31-72.94-36.48-109.4-2.44-7.31-8.73-10.76-15.25-8.46-6.6,2.33-9.4,8.73-6.97,16.01,14.15,42.45,28.31,84.9,42.46,127.35,19.12,57.39,38.07,114.84,57.54,172.11,2.78,8.19-2.2,17.57-12.57,17.47-38.98-.4-77.98-.16-116.96-.16-7.65,0-11.03-2.43-13.41-9.67-7.39-22.49-15.66-44.7-20.97-67.84-7.88-34.29-10.66-68.99-8.49-104.08,1.76-28.51,8.03-56.2,15.05-83.79,12.52-49.24,24.69-98.58,37.01-147.87.93-3.71,1.99-7.39,2.89-11.1,2.01-8.29,5.51-11.08,14.11-11.08,30.17,0,60.35,0,90.52,0,11.3,0,22.6-.02,33.9.01,6.58.02,10.58,2.79,12.59,8.86,11.91,35.96,24.09,71.83,35.57,107.92,8.4,26.41,13.64,53.57,17.55,81.01,5.31,37.27,4.46,74.73,4.48,112.19,0,2.48,0,4.97,0,7.45Z"/>
    <path class="cls-2" d="M642.03,47.03c3.69-1.13,4.3-3.72,3.85-6.81-.46-3.15-2.86-4.27-5.54-4.53-3.07-.3-6.17-.08-9.26-.16-1.22-.03-1.78.3-1.77,1.66.06,6.18.06,12.36.02,18.55,0,1.5.89,1.46,1.95,1.47,1.05,0,1.98.02,1.92-1.48-.07-1.61-.04-3.22,0-4.82.01-.69-.24-1.48.6-1.95,3.28-1.83,8.07.74,8.34,4.5.04.61.06,1.24,0,1.85-.13,1.47.57,1.87,1.95,1.92,1.55.05,1.75-.59,1.81-1.95.15-3.39-.5-6.34-3.86-8.25ZM635.79,45.98c-4.52.34-2.14-3.05-2.57-4.82-.81-3.27,1.59-2.76,3.51-2.72,2.62.07,5.59-.11,5.38,3.76-.23,4.15-3.55,3.58-6.32,3.79Z"/>
    <path class="cls-2" d="M637.07,26.72c-10.86.04-19.51,8.74-19.52,19.62,0,11.3,8.39,19.78,19.6,19.78,11.08,0,19.86-8.7,19.85-19.69-.01-10.93-8.93-19.76-19.93-19.72ZM637.24,63.25c-9.61.01-16.76-7.2-16.75-16.89,0-9.25,7.46-16.77,16.64-16.79,9.3,0,17.02,7.77,16.92,17.04-.1,9.24-7.55,16.62-16.81,16.64Z"/>
    <path class="cls-2" d="M642.03,47.03c3.69-1.13,4.3-3.72,3.85-6.81-.46-3.15-2.86-4.27-5.54-4.53-3.07-.3-6.17-.08-9.26-.16-1.22-.03-1.78.3-1.77,1.66.06,6.18.06,12.36.02,18.55,0,1.5.89,1.46,1.95,1.47,1.05,0,1.98.02,1.92-1.48-.07-1.61-.04-3.22,0-4.82.01-.69-.24-1.48.6-1.95,3.28-1.83,8.07.74,8.34,4.5.04.61.06,1.24,0,1.85-.13,1.47.57,1.87,1.95,1.92,1.55.05,1.75-.59,1.81-1.95.15-3.39-.5-6.34-3.86-8.25ZM635.79,45.98c-4.52.34-2.14-3.05-2.57-4.82-.81-3.27,1.59-2.76,3.51-2.72,2.62.07,5.59-.11,5.38,3.76-.23,4.15-3.55,3.58-6.32,3.79Z"/>
    <path class="cls-2" d="M642.03,47.03c3.69-1.13,4.3-3.72,3.85-6.81-.46-3.15-2.86-4.27-5.54-4.53-3.07-.3-6.17-.08-9.26-.16-1.22-.03-1.78.3-1.77,1.66.06,6.18.06,12.36.02,18.55,0,1.5.89,1.46,1.95,1.47,1.05,0,1.98.02,1.92-1.48-.07-1.61-.04-3.22,0-4.82.01-.69-.24-1.48.6-1.95,3.28-1.83,8.07.74,8.34,4.5.04.61.06,1.24,0,1.85-.13,1.47.57,1.87,1.95,1.92,1.55.05,1.75-.59,1.81-1.95.15-3.39-.5-6.34-3.86-8.25ZM635.79,45.98c-4.52.34-2.14-3.05-2.57-4.82-.81-3.27,1.59-2.76,3.51-2.72,2.62.07,5.59-.11,5.38,3.76-.23,4.15-3.55,3.58-6.32,3.79Z"/>
  </g>
  <g>
    <path class="cls-1" d="M4559.27,187.49h58.16v248.54h-58.16l6.73-72.11h-.97c-13.46,49.99-51.43,78.84-105.75,78.84-64.42,0-100.48-39.42-100.48-113.94v-141.33h58.17v134.12c0,46.63,23.56,70.67,66.34,70.67,46.63,0,75.96-30.77,75.96-76.92v-127.87Z"/>
    <polygon class="cls-1" points="4684.26 99.52 4742.43 88.46 4742.43 436.03 4684.26 436.03 4684.26 99.52"/>
    <path class="cls-1" d="M1836.09,187.49h58.16v248.54h-58.16l6.73-72.11h-.97c-13.46,49.99-51.43,78.84-105.76,78.84-64.41,0-100.47-39.42-100.47-113.94v-141.33h58.17v134.12c0,46.63,23.56,70.67,66.34,70.67,46.63,0,75.96-30.77,75.96-76.92v-127.87Z"/>
    <rect class="cls-1" x="2298.07" y="187.49" width="58.16" height="248.54"/>
    <path class="cls-1" d="M1235.26,128.09c0-38.31-18.13-62.13-47.63-62.13-46.6,0-63.68,49.71-63.68,99.41,0,40.38,7.77,83.35,21.75,124.25-32.62,59.01-75.08,107.17-110.28,107.17-22.25,0-38.82-27.44-47.63-67.82,42.97-67.3,70.94-149.1,70.94-197.25,0-39.86-13.99-65.75-45.56-65.75-60.06,0-79.73,85.95-79.73,172.41,0,28.47,2.59,57.47,7.76,84.9-31.06,42.46-67.81,73.52-99.91,73.52-13.47,0-20.19-7.76-20.19-21.23,0-20.71,12.42-43.48,50.73-65.23l-21.75-37.8c-54.36,25.89-80.24,64.2-80.24,107.17,0,31.58,23.29,63.16,70.41,63.16,40.9,0,80.76-28.47,114.94-69.37,16.05,40.9,41.42,69.37,77.14,69.37,49.18,0,96.29-45.56,132.53-104.06,18.13,39.35,40.9,75.59,65.76,104.06l40.38-26.4c-32.1-37.27-59.54-82.32-78.18-129.94,26.4-56.95,42.46-117.01,42.46-158.43ZM978.98,259.6l-.52-23.3c0-63.67,8.81-124.25,26.92-124.25,6.21,0,9.84,7.25,9.84,18.64,0,36.76-14.49,84.38-36.24,128.91ZM1168.46,164.34c0-30.03,5.7-52.29,17.09-52.29,6.73,0,10.35,6.21,10.35,17.61,0,26.92-7.76,61.09-21.23,95.77-4.14-20.19-6.21-40.9-6.21-61.09Z"/>
    <path class="cls-1" d="M1439,180.76c-84.13,0-145.18,54.32-145.18,131.24s61.05,130.76,145.18,130.76,144.22-53.84,144.22-130.76-60.57-131.24-144.22-131.24ZM1439,392.28c-52.88,0-85.57-33.17-85.57-80.76s32.69-80.28,85.57-80.28,85.09,33.17,85.09,80.28-32.69,80.76-85.09,80.76Z"/>
    <path class="cls-1" d="M2121.16,180.76c-28.84,0-58.65,13.46-85.09,34.61l-12.98-27.88h-60.09c12.98,24.04,24.04,46.63,33.17,67.78-29.32,37.02-49.51,81.25-49.51,119.7s19.71,67.79,62.01,67.79,70.67-27.89,70.67-75.96c0-27.4-9.14-64.42-25.96-108.16,19.71-17.79,41.34-29.33,61.53-29.33,51.92,0,60.57,60.09,60.09,206.72h58.17c4.81-192.78-28.84-255.27-112.01-255.27ZM2013,394.2c-11.06,0-15.39-5.77-15.39-24.03,0-20.67,7.21-43.27,18.75-63.94,7.69,24.52,12.02,44.71,12.02,59.61,0,21.15-5.29,28.36-15.38,28.36Z"/>
    <path class="cls-1" d="M3668.95,257.68h-.96c-14.42-49.04-56.25-76.92-109.61-76.92-72.11,0-122.58,52.88-122.58,124.51s50.47,125.47,122.58,125.47c53.84,0,95.19-28.36,109.61-77.4h.96l-5.77,67.78c-3.85,43.27-36.06,68.75-93.26,68.75-36.06,0-67.78-6.73-108.17-23.56v50.48c43.27,15.38,75.48,22.11,116.34,22.11,92.3,0,142.78-49.99,142.78-135.08v-216.33h-58.17l6.25,70.19ZM3579.05,381.7c-52.88,0-83.65-29.8-83.65-76.43s30.77-75.96,83.65-75.96,83.65,29.81,83.65,76.44-31.25,75.95-83.65,75.95Z"/>
    <polygon class="cls-1" points="3776.16 187.49 4001.62 187.49 4001.62 189.41 3858.36 385.07 3996.33 385.07 3996.33 436.03 3762.21 436.03 3762.21 434.1 3906.43 238.45 3776.16 238.45 3776.16 187.49"/>
    <path class="cls-1" d="M3023.47,292.14c-17.62,0-35.74,3.63-49.22,7.25l-5.7,44.56c16.58-2.59,30.05-5.7,47.67-5.7,20.2,0,36.26,6.73,36.26,24.87,0,20.72-17.09,33.67-58.54,33.67-34.19,0-68.9-15.54-102.58-29.53,10.87-31.61,16.58-68.91,20.72-104.66h1.04c55.95,0,155.95-35.22,155.95-123.3,0-40.41-25.91-73.57-80.83-73.57-76.16,0-104.65,63.21-119.16,146.62-19.69-4.14-37.3-9.84-51.29-17.1l-15.03,42.49c15.03,7.77,36.27,15.54,59.59,19.68-4.15,35.23-8.3,67.87-14.51,94.3-10.88-3.11-21.76-5.18-32.12-5.18-39.9,0-62.17,19.68-62.17,48.7,0,31.08,20.72,47.66,51.81,47.66s53.88-15.54,69.42-39.9c36.27,17.63,77.71,39.9,118.13,39.9,62.17,0,111.38-25.39,111.38-80.3,0-51.81-40.41-70.46-80.82-70.46ZM2988.24,111.84c20.21,0,30.05,9.84,30.05,27.98,0,49.21-54.4,75.12-100.51,76.67,10.88-68.9,27.98-104.65,70.46-104.65ZM2810.54,405.08c-7.78,0-13.47-3.11-13.47-10.36,0-7.78,5.18-11.4,17.62-11.4,6.21,0,13.46,1.04,20.72,3.62-6.23,11.41-14.51,18.14-24.87,18.14Z"/>
    <path class="cls-1" d="M4310.25,308.63c0,75.96-57.21,134.13-149.51,134.13s-144.22-54.33-144.22-130.76c0-19.71,2.89-39.9,6.73-58.65l52.88-4.33c-3.36,16.35-4.8,30.29-4.8,46.15,0,66.82,37.49,99.03,89.41,99.03,55.77,0,90.38-33.65,90.38-85.57,0-49.03-24.52-79.32-64.42-79.32-28.36,0-43.26,15.39-43.26,40.87,0,19.22,7.69,36.05,18.74,49.51l-49.03,12.98c-13.94-16.34-24.52-37.5-24.52-64.9,0-43.74,33.65-87.01,100.96-87.01,83.16,0,120.66,55.28,120.66,127.87Z"/>
    <path class="cls-1" d="M2364.41,122.59c0,19.23-16.35,33.65-37.5,33.65s-37.02-14.42-37.02-33.65,15.87-33.17,37.02-33.17,37.5,14.42,37.5,33.17Z"/>
    <path class="cls-1" d="M4875.59,122.59c0,19.23-16.35,33.65-37.5,33.65s-37.02-14.42-37.02-33.65,15.87-33.17,37.02-33.17,37.5,14.42,37.5,33.17Z"/>
    <rect class="cls-1" x="4809.24" y="187.49" width="58.17" height="248.54"/>
    <polygon class="cls-1" points="4924.06 410.46 4945.74 410.46 4945.74 416.45 4938.31 416.45 4938.31 433.88 4931.49 433.88 4931.49 416.45 4924.06 416.45 4924.06 410.46"/>
    <polygon class="cls-1" points="4978.6 410.46 4978.57 433.88 4971.77 433.88 4971.77 425.92 4972.14 419.76 4972.07 419.76 4964.14 434.35 4963.94 434.35 4956.01 419.76 4955.95 419.76 4956.31 425.92 4956.31 433.88 4949.49 433.88 4949.45 410.46 4956.88 410.46 4964.04 424.64 4971.2 410.46 4978.6 410.46"/>
    <path class="cls-1" d="M2579.77,180.76c8.65,0,17.3.96,23.07,1.92v57.69c-12.98-5.77-30.76-9.13-45.18-9.13-45.67,0-76.44,30.28-76.44,74.99v129.8h-58.17v-248.54h58.17l-6.73,72.11h.96c13.94-50.96,50.96-78.84,104.32-78.84Z"/>
    <path class="cls-1" d="M3264.18,180.76c-33.65,0-71.63,7.21-112.49,22.11v52.88c37.49-16.82,72.11-25.96,102.87-25.96,45.19,0,69.23,19.71,69.71,54.81h-83.17c-69.7,0-106.72,31.24-106.72,80.76s34.13,77.4,88.94,77.4,91.33-28.37,106.24-78.84h.96l-6.25,72.11h58.17v-145.66c0-71.15-43.27-109.61-118.26-109.61ZM3324.27,327.86c0,36.06-39.9,66.34-85.09,66.34-30.29,0-47.11-12.5-47.11-36.53s18.75-34.13,49.99-34.13h82.21v4.32Z"/>
  </g>
</svg>